<svg width="9" height="10" viewBox="0 0 9 10" fill="none" xmlns="http://www.w3.org/2000/svg">
<path d="M5.84544 1.57018C6.14855 1.20248 6.36221 0.700619 6.36221 0.193788C6.36221 0.124223 6.35724 0.0546584 6.34731 0C5.85041 0.0198756 5.25414 0.327949 4.90135 0.745341C4.61812 1.06335 4.35974 1.57018 4.35974 2.07701C4.35974 2.15651 4.37464 2.23105 4.37961 2.2559C4.40943 2.26086 4.45911 2.2708 4.51377 2.2708C4.95601 2.2708 5.51253 1.97266 5.84544 1.57018ZM6.19327 2.37514C5.4529 2.37514 4.84669 2.82732 4.45911 2.82732C4.04669 2.82732 3.51005 2.40496 2.86409 2.40496C1.63676 2.40496 0.394531 3.41862 0.394531 5.32669C0.394531 6.5192 0.851672 7.77634 1.4231 8.58632C1.91005 9.27203 2.33738 9.83353 2.95353 9.83353C3.55974 9.83353 3.82806 9.43102 4.58333 9.43102C5.34855 9.43102 5.52246 9.82359 6.19327 9.82359C6.8591 9.82359 7.30135 9.21241 7.72367 8.61116C8.19076 7.92049 8.38956 7.24969 8.39453 7.21491C8.35472 7.20497 7.08268 6.68322 7.08268 5.22731C7.08268 3.9652 8.08146 3.39874 8.14108 3.35403C7.48022 2.40496 6.4715 2.37514 6.19327 2.37514Z" fill="white"/>
</svg>
