<svg width="19" height="19" viewBox="0 0 19 19" fill="none" xmlns="http://www.w3.org/2000/svg">
<path d="M16.6602 7.5752H1.74377" stroke="black" stroke-width="2" stroke-linecap="round" stroke-linejoin="round"/>
<path d="M5.66919 3.15894V1.19625" stroke="black" stroke-width="2" stroke-linecap="round" stroke-linejoin="round"/>
<path d="M13.52 3.15894V1.19625" stroke="black" stroke-width="2" stroke-linecap="round" stroke-linejoin="round"/>
<path fill-rule="evenodd" clip-rule="evenodd" d="M11.5573 1.17773H7.63195V3.17773H11.5573V1.17773ZM15.4827 3.62254C16.0661 4.04669 16.4454 4.73459 16.4454 5.51107V14.5459C16.4454 15.8345 15.4007 16.8792 14.112 16.8792H5.07723C3.78856 16.8792 2.7439 15.8345 2.7439 14.5459V5.51106C2.7439 4.73458 3.12318 4.04669 3.70658 3.62254V1.39898C1.98509 1.97252 0.743896 3.59684 0.743896 5.51106V14.5459C0.743896 16.9391 2.68399 18.8792 5.07723 18.8792H14.112C16.5053 18.8792 18.4454 16.9391 18.4454 14.5459V5.51107C18.4454 3.59684 17.2042 1.97252 15.4827 1.39898V3.62254Z" fill="black"/>
</svg>
