<svg width="24" height="21" viewBox="0 0 24 21" fill="none" xmlns="http://www.w3.org/2000/svg">
<path d="M12 15.8676C14.7614 15.8676 17 13.7874 17 11.2214C17 8.65536 14.7614 6.5752 12 6.5752C9.23858 6.5752 7 8.65536 7 11.2214C7 13.7874 9.23858 15.8676 12 15.8676Z" stroke="black" stroke-width="2" stroke-miterlimit="10" stroke-linecap="round" stroke-linejoin="round"/>
<path d="M21 19.5847H3C2.46957 19.5847 1.96086 19.3889 1.58579 19.0404C1.21071 18.6919 1 18.2191 1 17.7262V5.64618C1 5.15328 1.21071 4.68057 1.58579 4.33204C1.96086 3.98351 2.46957 3.78771 3 3.78771H7L9 1H15L17 3.78771H21C21.5304 3.78771 22.0391 3.98351 22.4142 4.33204C22.7893 4.68057 23 5.15328 23 5.64618V17.7262C23 18.2191 22.7893 18.6919 22.4142 19.0404C22.0391 19.3889 21.5304 19.5847 21 19.5847Z" stroke="black" stroke-width="2" stroke-miterlimit="10" stroke-linecap="round" stroke-linejoin="round"/>
<path d="M4 7.50496C4.55228 7.50496 5 7.08892 5 6.57572C5 6.06252 4.55228 5.64648 4 5.64648C3.44772 5.64648 3 6.06252 3 6.57572C3 7.08892 3.44772 7.50496 4 7.50496Z" fill="#0D0D0D"/>
</svg>
