<svg width="90" height="23" viewBox="0 0 90 23" fill="none" xmlns="http://www.w3.org/2000/svg">
<g clip-path="url(#clip0_1770_11137)">
<path d="M62.1141 0.804309H86.9489C87.9791 0.804309 88.8143 1.6396 88.8143 2.67015V16.6548C88.8143 17.6854 87.9791 18.5207 86.9489 18.5207H62.1141C61.0839 18.5207 60.2486 17.6854 60.2486 16.6548V2.67015C60.2486 1.6396 61.0839 0.804309 62.1141 0.804309Z" fill="#1871B6" stroke="black" stroke-width="0.827369"/>
<path d="M32.3601 0.804309H57.195C58.2252 0.804309 59.0604 1.6396 59.0604 2.67015V16.6548C59.0604 17.6854 58.2252 18.5207 57.195 18.5207H32.3601C31.33 18.5207 30.4947 17.6854 30.4947 16.6548V2.67015C30.4947 1.6396 31.33 0.804309 32.3601 0.804309Z" fill="white" stroke="black" stroke-width="0.827369"/>
<path d="M2.60527 0.804309H27.4401C28.4703 0.804309 29.3056 1.6396 29.3056 2.67015V16.6548C29.3056 17.6854 28.4703 18.5207 27.4401 18.5207H2.60527C1.5751 18.5207 0.739856 17.6854 0.739856 16.6548V2.67015C0.739856 1.6396 1.5751 0.804309 2.60527 0.804309Z" fill="white" stroke="black" stroke-width="0.827369"/>
<path d="M51.7134 13.3967C49.8141 15.2963 46.8296 15.4592 44.7676 13.8671C44.9665 13.7405 45.1474 13.5777 45.3283 13.3967C47.4084 11.3343 47.4084 7.96931 45.3283 5.90688C45.1474 5.72597 44.9665 5.56315 44.7676 5.43651C46.8296 3.84446 49.8141 4.00728 51.7134 5.90688C53.7754 7.96931 53.7754 11.3343 51.7134 13.3967Z" fill="#F59F34"/>
<path d="M45.329 13.3958C45.1481 13.5767 44.9673 13.7395 44.7683 13.8662C44.5693 13.7395 44.3884 13.5767 44.2076 13.3958C42.1274 11.3334 42.1274 7.96835 44.2076 5.90592C44.3884 5.72501 44.5693 5.56219 44.7683 5.43555C44.9673 5.56219 45.1481 5.72501 45.329 5.90592C47.4091 7.96835 47.4091 11.3334 45.329 13.3958Z" fill="#FC601E"/>
<path d="M44.2074 13.3967C44.3882 13.5777 44.5691 13.7405 44.7681 13.8671C42.7061 15.4592 39.7215 15.2963 37.8404 13.3967C35.7602 11.3343 35.7602 7.96931 37.8404 5.90688C39.7215 4.00728 42.7061 3.84446 44.7681 5.43651C44.5691 5.56315 44.3882 5.72597 44.2074 5.90688C42.1272 7.96931 42.1272 11.3343 44.2074 13.3967Z" fill="#E80222"/>
<path d="M83.4765 6.10658C83.0062 6.50459 82.4997 6.84833 82.0294 7.21016C81.5772 7.57199 81.125 7.91573 80.6728 8.27755C80.3653 8.51274 80.0578 8.71175 79.7684 8.96503C79.5694 9.12785 79.3705 9.29068 79.1534 9.43541C79.0449 9.50777 79.0992 9.59823 79.1534 9.6706C79.2981 9.81533 79.4247 9.94197 79.5875 10.0686C79.8769 10.3219 80.1483 10.5933 80.4377 10.8646C80.7813 11.1722 81.1431 11.4436 81.4687 11.7511C81.7038 12.0044 81.9752 12.2215 82.2465 12.4386C82.7529 12.8547 83.2051 13.3251 83.7116 13.7412C83.7478 13.7593 83.784 13.7954 83.7659 13.8497C83.7478 13.904 83.6754 13.8859 83.6212 13.8859C83.0423 13.8859 82.4454 13.8859 81.8666 13.8859C79.9131 13.8859 77.9415 13.8859 75.988 13.8859C75.789 13.8859 75.6082 13.9402 75.4092 13.8859C75.3188 13.8678 75.2645 13.8316 75.1921 13.7593C74.4686 13.0175 73.7632 12.2758 73.0577 11.534C72.6598 11.1179 72.2257 10.7199 71.8459 10.2857C71.7192 10.1591 71.5745 10.0505 71.466 9.90579C71.4298 9.8696 71.3756 9.83342 71.3213 9.81533C71.2489 9.77915 71.2128 9.79724 71.2309 9.88769C71.3032 11.136 71.267 12.3843 71.267 13.6326C71.267 13.8859 71.267 13.8859 70.9957 13.8859C69.1507 13.8859 67.3057 13.8859 65.4608 13.8859C65.298 13.8859 65.2618 13.8497 65.298 13.6869C65.3522 13.4698 65.3342 13.2527 65.3342 13.0537C65.3342 10.7923 65.3342 8.53084 65.3342 6.28749C65.3342 6.14276 65.3703 6.08849 65.515 6.08849C67.3058 6.08849 69.0965 6.08849 70.9053 6.08849C70.9957 6.08849 71.0862 6.12467 71.1947 6.12467C71.2489 6.12467 71.2489 6.16085 71.2489 6.19704C71.2489 6.34177 71.2851 6.46841 71.2851 6.61314C71.2851 7.42726 71.2851 8.24137 71.2851 9.05549C71.2851 9.16404 71.267 9.27258 71.2489 9.38113C71.2489 9.43541 71.2489 9.48968 71.3394 9.43541C71.6288 9.27258 71.882 9.05549 72.1172 8.83839C72.3342 8.63938 72.5694 8.47656 72.8045 8.31374C73.5642 7.77099 74.2697 7.17398 75.0113 6.61314C75.1741 6.4865 75.3549 6.37795 75.4815 6.23322C75.6263 6.0704 75.8252 6.08849 76.0061 6.08849C77.4893 6.08849 78.9545 6.08849 80.4377 6.08849C81.3059 6.08849 82.1741 6.08849 83.0604 6.08849C83.2051 6.08849 83.3318 6.08849 83.4946 6.14276L83.4765 6.10658Z" fill="#F8E741"/>
<path d="M23.0625 12.3125C23.0625 12.3125 23.0083 12.3125 22.9721 12.3125C22.5922 12.3125 22.2305 12.3125 21.8506 12.3125C21.7964 12.3125 21.7783 12.3125 21.7783 12.2582C21.7421 12.0592 21.7059 11.8783 21.6697 11.6793C21.6697 11.625 21.6517 11.5889 21.6336 11.5346C21.6336 11.5346 21.6155 11.5165 21.5974 11.4984C21.5793 11.4984 21.5431 11.4984 21.525 11.4984C21.0005 11.4984 20.4759 11.4984 19.9333 11.4984C19.9152 11.4984 19.8971 11.4984 19.879 11.4984C19.879 11.4984 19.8429 11.4984 19.8429 11.5346C19.7705 11.7336 19.6981 11.9326 19.6258 12.1497C19.6258 12.1678 19.6258 12.204 19.6077 12.2221C19.5896 12.3125 19.5896 12.3125 19.4992 12.3125C19.0651 12.3125 18.631 12.3125 18.2149 12.3125C18.1968 12.3125 18.1788 12.3125 18.1426 12.3125C18.1426 12.2944 18.1426 12.2582 18.1607 12.2401C18.2511 12.005 18.3596 11.7698 18.4501 11.5346C18.5948 11.1728 18.7576 10.8109 18.9023 10.4491C19.0108 10.1777 19.1193 9.92444 19.2279 9.65307C19.3545 9.34552 19.4992 9.01987 19.6258 8.71231C19.7705 8.38667 19.8971 8.06102 20.0418 7.73538C20.0961 7.59064 20.1504 7.44591 20.2227 7.31927C20.3312 7.12027 20.5121 7.01172 20.7473 7.01172C21.109 7.01172 21.4889 7.01172 21.8687 7.01172C21.9411 7.01172 21.9411 7.01172 21.9592 7.08408C21.9953 7.22882 22.0134 7.39164 22.0496 7.53637C22.1219 7.86202 22.1943 8.18766 22.2486 8.51331C22.2667 8.62186 22.2847 8.71231 22.3028 8.82086C22.339 9.01987 22.3933 9.21888 22.4294 9.41788C22.4656 9.56261 22.4837 9.70734 22.5018 9.83398C22.538 10.0149 22.5922 10.2139 22.6284 10.3948C22.6827 10.6119 22.7189 10.8471 22.755 11.0642C22.8093 11.3175 22.8636 11.5708 22.9178 11.824C22.9178 11.8783 22.9178 11.9507 22.954 12.005C22.9721 12.0954 22.9902 12.204 23.0263 12.3125H23.0625ZM20.9824 8.45903C20.9824 8.45903 20.9824 8.49522 20.9643 8.51331C20.8739 8.78468 20.7834 9.05605 20.6749 9.30933C20.5483 9.67116 20.4036 10.0149 20.277 10.3767C20.277 10.4129 20.277 10.4129 20.2951 10.4129H20.3312C20.6387 10.4129 20.9462 10.4129 21.2537 10.4129C21.2899 10.4129 21.3442 10.4129 21.3984 10.4129C21.2537 9.76162 21.1271 9.11033 20.9824 8.45903Z" fill="black"/>
<path d="M12.4994 7.01172C12.4994 7.01172 12.4994 7.0479 12.4813 7.06599C12.3728 7.31927 12.2642 7.57255 12.1557 7.82583C11.9929 8.18766 11.8482 8.56758 11.6854 8.92941C11.5769 9.20078 11.4684 9.45406 11.3598 9.72544C11.2332 10.0149 11.1247 10.2863 10.9981 10.5757C10.8715 10.9014 10.7268 11.2089 10.6001 11.5346C10.5097 11.7336 10.4373 11.9326 10.3469 12.1316C10.3469 12.1678 10.3107 12.2221 10.2926 12.2582C10.2926 12.3125 10.2384 12.3306 10.2022 12.3306C9.85853 12.3306 9.49677 12.3306 9.15309 12.3306C9.06265 12.3306 8.95412 12.3306 8.86368 12.3306C8.82751 12.3306 8.80942 12.3306 8.80942 12.2944C8.73707 12.005 8.66472 11.7336 8.59236 11.4441C8.59236 11.3718 8.57428 11.3175 8.55619 11.2451C8.55619 11.1908 8.5381 11.1547 8.52001 11.1004C8.46575 10.9014 8.39339 10.7205 8.35722 10.5215C8.30295 10.2139 8.19443 9.90635 8.12207 9.5988C8.06781 9.34552 7.99546 9.09224 7.92311 8.83896C7.90502 8.7485 7.88693 8.65804 7.86884 8.56758C7.81458 8.35049 7.74223 8.15148 7.68796 7.93438C7.65179 7.80774 7.56134 7.71729 7.43473 7.66301C7.25385 7.57255 7.05488 7.4821 6.874 7.40973C6.71121 7.35546 6.54841 7.31927 6.40371 7.28309C6.31327 7.265 6.20474 7.22882 6.1143 7.21072C6.07812 7.21072 6.07812 7.21072 6.07812 7.15645C6.09621 7.0479 6.09621 7.0479 6.20474 7.0479C6.92826 7.0479 7.66987 7.0479 8.39339 7.0479C8.57428 7.0479 8.73707 7.10218 8.88177 7.22882C8.9903 7.33736 9.04456 7.4821 9.08074 7.62683C9.11692 7.78965 9.15309 7.95247 9.17118 8.09721C9.24353 8.51331 9.33397 8.9475 9.40633 9.36361C9.47868 9.70735 9.53294 10.0511 9.60529 10.3767C9.60529 10.431 9.60529 10.4853 9.62338 10.5396C9.62338 10.5757 9.64147 10.5938 9.65956 10.63C9.65956 10.63 9.65956 10.6119 9.67765 10.5938C9.73191 10.431 9.78617 10.2682 9.85853 10.1234C9.93088 9.94253 10.0032 9.76162 10.0756 9.56261C10.166 9.34552 10.2565 9.11033 10.3469 8.89323C10.4193 8.71232 10.4916 8.5314 10.564 8.35049C10.6544 8.13339 10.7268 7.91629 10.8172 7.69919C10.8895 7.50019 10.9619 7.31927 11.0342 7.12027C11.0704 7.0479 11.0704 7.0479 11.1428 7.0479C11.5769 7.0479 12.011 7.0479 12.4451 7.0479C12.4451 7.0479 12.4632 7.0479 12.4994 7.0479V7.01172Z" fill="black"/>
<path d="M18.2148 8.27729C18.2148 8.27729 18.052 8.20493 17.9616 8.16875C17.6722 8.0602 17.3647 8.02401 17.0572 8.02401C16.9125 8.02401 16.7497 8.02401 16.605 8.09638C16.4784 8.13256 16.3879 8.22302 16.3156 8.33157C16.2613 8.44012 16.2432 8.54867 16.3156 8.63912C16.3518 8.6934 16.406 8.74767 16.4603 8.80195C16.6231 8.92859 16.8221 9.01904 17.0029 9.12759C17.22 9.25423 17.4371 9.36278 17.636 9.52561C17.7626 9.61606 17.8712 9.72461 17.9616 9.86934C18.1606 10.1769 18.2148 10.5025 18.1606 10.8463C18.0701 11.3348 17.835 11.7147 17.4009 11.986C17.0753 12.185 16.7316 12.3117 16.3699 12.3479C16.1709 12.366 15.9719 12.3841 15.773 12.3841C15.6102 12.3841 15.4293 12.366 15.2665 12.3479C15.0313 12.3298 14.7962 12.2936 14.5611 12.2031C14.4706 12.167 14.3802 12.1489 14.2897 12.1127C14.2536 12.1127 14.2536 12.0765 14.2716 12.0584C14.2897 11.968 14.3078 11.8594 14.344 11.7689C14.3983 11.5157 14.4525 11.2443 14.5068 10.991C14.5068 10.991 14.5068 10.9729 14.5068 10.9548C14.5791 10.991 14.6515 11.0091 14.7238 11.0453C14.9409 11.1357 15.158 11.2081 15.3931 11.2443C15.4655 11.2443 15.5378 11.2443 15.6102 11.2443C15.8091 11.2443 16.0081 11.2624 16.2071 11.2443C16.3699 11.2262 16.4965 11.1538 16.6231 11.0453C16.7859 10.9006 16.804 10.6654 16.6593 10.4845C16.605 10.4302 16.5327 10.3578 16.4784 10.3216C16.3156 10.2312 16.1528 10.1407 15.99 10.0503C15.8996 10.0141 15.8272 9.9598 15.7549 9.90553C15.5921 9.81507 15.4474 9.70652 15.3027 9.57988C15.1399 9.43515 15.0133 9.25423 14.9409 9.07332C14.8866 8.92859 14.8505 8.76576 14.8686 8.58485C14.8686 8.33157 14.9409 8.09638 15.0856 7.87928C15.2665 7.57173 15.5197 7.35463 15.8091 7.2099C16.0443 7.10135 16.2794 6.9928 16.5327 6.95662C16.5507 6.95662 16.5688 6.95662 16.605 6.95662C16.605 6.95662 16.6231 6.95662 16.6412 6.95662C16.7678 6.90234 16.9125 6.90234 17.0391 6.90234C17.1115 6.90234 17.2019 6.90234 17.2743 6.92044C17.3285 6.92044 17.3828 6.92044 17.419 6.92044C17.7084 6.93853 18.0159 6.97471 18.2872 7.08326C18.3234 7.08326 18.3776 7.11944 18.4319 7.11944C18.4681 7.11944 18.4862 7.13753 18.4681 7.19181C18.4319 7.35463 18.3957 7.53554 18.3595 7.69837C18.3234 7.87928 18.2872 8.04211 18.251 8.22302C18.251 8.22302 18.251 8.2592 18.251 8.27729H18.2148Z" fill="black"/>
<path d="M11.957 12.313C11.957 12.313 11.9751 12.1864 11.9932 12.1321C12.0475 11.8607 12.1198 11.5894 12.1741 11.318C12.2464 11.0104 12.3007 10.6848 12.3731 10.3772C12.4454 10.0154 12.5358 9.63549 12.6082 9.27366C12.6806 8.92993 12.7529 8.58619 12.8253 8.24245C12.8976 7.89871 12.97 7.53688 13.0423 7.19315C13.0423 7.15696 13.0604 7.10269 13.0604 7.04841C13.0604 7.01223 13.0785 6.99414 13.1147 6.99414C13.1508 6.99414 13.1689 6.99414 13.2051 6.99414C13.603 6.99414 14.001 6.99414 14.3808 6.99414C14.417 6.99414 14.4532 6.99414 14.4351 7.04841C14.3808 7.31979 14.3266 7.57307 14.2723 7.84444C14.1999 8.17008 14.1276 8.49573 14.0733 8.80329C13.9829 9.21939 13.8925 9.63549 13.802 10.0516C13.7116 10.4858 13.603 10.9381 13.5126 11.3723C13.4583 11.6436 13.4041 11.915 13.3498 12.1864C13.3317 12.2949 13.3317 12.2949 13.2051 12.2949C12.8072 12.2949 12.4092 12.2949 12.0294 12.2949C12.0113 12.2949 11.9932 12.2949 11.957 12.2949V12.313Z" fill="black"/>
</g>
<defs>
<clipPath id="clip0_1770_11137">
<rect width="88.9027" height="22.4334" fill="white" transform="translate(0.326172 0.390625)"/>
</clipPath>
</defs>
</svg>
