<svg width="25" height="25" viewBox="0 0 25 25" fill="none" xmlns="http://www.w3.org/2000/svg">
<path d="M20.3955 17.1901V11.6422C20.3955 11.1078 20.395 10.8405 20.3301 10.5919C20.2725 10.3715 20.178 10.163 20.0501 9.97458C19.9057 9.76196 19.7051 9.58563 19.3029 9.23377L14.5029 5.03377C13.7563 4.38048 13.383 4.054 12.9629 3.92976C12.5927 3.82029 12.1981 3.82029 11.8279 3.92976C11.4081 4.05391 11.0354 4.38008 10.2899 5.03238L5.48828 9.23377C5.08615 9.58563 4.88555 9.76196 4.74121 9.97458C4.6133 10.163 4.51806 10.3715 4.46048 10.5919C4.39551 10.8405 4.39551 11.1078 4.39551 11.6422V17.1901C4.39551 18.122 4.39551 18.5878 4.54775 18.9553C4.75074 19.4453 5.13983 19.8352 5.62988 20.0382C5.99742 20.1904 6.46337 20.1904 7.39525 20.1904C8.32713 20.1904 8.79359 20.1904 9.16113 20.0382C9.65119 19.8352 10.0402 19.4454 10.2432 18.9554C10.3954 18.5878 10.3955 18.1219 10.3955 17.19V16.19C10.3955 15.0854 11.2909 14.19 12.3955 14.19C13.5001 14.19 14.3955 15.0854 14.3955 16.19V17.19C14.3955 18.1219 14.3955 18.5878 14.5477 18.9554C14.7507 19.4454 15.1398 19.8352 15.6299 20.0382C15.9974 20.1904 16.4634 20.1904 17.3952 20.1904C18.3271 20.1904 18.7936 20.1904 19.1611 20.0382C19.6512 19.8352 20.0402 19.4453 20.2432 18.9553C20.3954 18.5878 20.3955 18.122 20.3955 17.1901Z" stroke="black" stroke-width="2" stroke-linecap="round" stroke-linejoin="round"/>
</svg>
