<svg width="19" height="20" viewBox="0 0 19 20" fill="none" xmlns="http://www.w3.org/2000/svg">
    <path d="M16.5625 8.1709H1.64611" stroke="black" stroke-width="2" stroke-linecap="round" stroke-linejoin="round"/>
    <path d="M5.57153 3.75464V1.79196" stroke="black" stroke-width="2" stroke-linecap="round" stroke-linejoin="round"/>
    <path d="M13.4224 3.75464V1.79196" stroke="black" stroke-width="2" stroke-linecap="round" stroke-linejoin="round"/>
    <path fill-rule="evenodd" clip-rule="evenodd" d="M11.4597 1.77332H7.53429V3.77332H11.4597V1.77332ZM15.385 4.21812C15.9684 4.64227 16.3477 5.33017 16.3477 6.10665V15.1414C16.3477 16.4301 15.303 17.4748 14.0144 17.4748H4.97957C3.69091 17.4748 2.64624 16.4301 2.64624 15.1414V6.10665C2.64624 5.33017 3.02552 4.64227 3.60892 4.21812V1.99456C1.88743 2.5681 0.64624 4.19242 0.64624 6.10665V15.1414C0.64624 17.5347 2.58633 19.4748 4.97957 19.4748H14.0144C16.4076 19.4748 18.3477 17.5347 18.3477 15.1414V6.10665C18.3477 4.19243 17.1065 2.5681 15.385 1.99456V4.21812Z" fill="black"/>
</svg>
