<svg width="25" height="25" viewBox="0 0 25 25" fill="none" xmlns="http://www.w3.org/2000/svg">
    <path d="M20.5842 17.701V12.1531C20.5842 11.6188 20.5838 11.3514 20.5188 11.1028C20.4612 10.8825 20.3667 10.6739 20.2388 10.4855C20.0945 10.2729 19.8938 10.0966 19.4917 9.74469L14.6917 5.54469C13.945 4.89141 13.5717 4.56493 13.1516 4.44069C12.7814 4.33121 12.3868 4.33121 12.0166 4.44069C11.5968 4.56484 11.2241 4.891 10.4786 5.5433L5.677 9.74469C5.27487 10.0966 5.07427 10.2729 4.92993 10.4855C4.80202 10.6739 4.70678 10.8825 4.6492 11.1028C4.58423 11.3514 4.58423 11.6187 4.58423 12.1531V17.701C4.58423 18.6329 4.58423 19.0987 4.73647 19.4662C4.93946 19.9563 5.32855 20.3461 5.8186 20.5491C6.18615 20.7013 6.65209 20.7013 7.58397 20.7013C8.51585 20.7013 8.98231 20.7013 9.34985 20.5491C9.83991 20.3461 10.2289 19.9564 10.4319 19.4663C10.5841 19.0988 10.5842 18.6328 10.5842 17.7009V16.7009C10.5842 15.5964 11.4797 14.7009 12.5842 14.7009C13.6888 14.7009 14.5842 15.5964 14.5842 16.7009V17.7009C14.5842 18.6328 14.5842 19.0988 14.7365 19.4663C14.9395 19.9564 15.3285 20.3461 15.8186 20.5491C16.1861 20.7013 16.6521 20.7013 17.584 20.7013C18.5159 20.7013 18.9823 20.7013 19.3499 20.5491C19.8399 20.3461 20.2289 19.9563 20.4319 19.4662C20.5841 19.0987 20.5842 18.6329 20.5842 17.701Z" stroke="black" stroke-width="2" stroke-linecap="round" stroke-linejoin="round"/>
</svg>
