<svg width="14" height="16" viewBox="0 0 14 16" fill="none" xmlns="http://www.w3.org/2000/svg">
<circle cx="7" cy="8" r="6.5" stroke="black"/>
<path d="M6.04545 9.625V9.4697C6.04545 9.0404 6.08081 8.69823 6.15152 8.44318C6.22475 8.18813 6.33081 7.98359 6.4697 7.82955C6.60859 7.67298 6.77778 7.5303 6.97727 7.40151C7.13636 7.3005 7.27778 7.19823 7.40152 7.0947C7.52778 6.98864 7.62753 6.875 7.70076 6.75379C7.77399 6.63258 7.81061 6.49495 7.81061 6.34091C7.81061 6.19192 7.77525 6.06061 7.70455 5.94697C7.63384 5.83333 7.53662 5.74621 7.41288 5.68561C7.29167 5.62247 7.15657 5.59091 7.00758 5.59091C6.85859 5.59091 6.71843 5.625 6.58712 5.69318C6.45833 5.76136 6.35227 5.85859 6.26894 5.98485C6.18813 6.10859 6.14646 6.25884 6.14394 6.43561H4.40152C4.40909 5.9053 4.53157 5.47096 4.76894 5.13258C5.00884 4.79419 5.32576 4.54419 5.7197 4.38258C6.11364 4.21843 6.54798 4.13636 7.02273 4.13636C7.54293 4.13636 8.00505 4.21717 8.40909 4.37879C8.81566 4.5404 9.1351 4.77904 9.36742 5.0947C9.59975 5.41035 9.71591 5.79672 9.71591 6.25379C9.71591 6.55429 9.6654 6.81944 9.56439 7.04924C9.46338 7.27904 9.32197 7.48232 9.14015 7.65909C8.96086 7.83333 8.75 7.99242 8.50758 8.13636C8.31818 8.24747 8.16035 8.36364 8.03409 8.48485C7.91035 8.60606 7.81692 8.74495 7.75379 8.90151C7.69066 9.05556 7.65909 9.24495 7.65909 9.4697V9.625H6.04545ZM6.88258 12.1098C6.60985 12.1098 6.37626 12.0139 6.18182 11.822C5.9899 11.6301 5.8952 11.3977 5.89773 11.125C5.8952 10.8573 5.9899 10.6288 6.18182 10.4394C6.37626 10.2475 6.60985 10.1515 6.88258 10.1515C7.14268 10.1515 7.37121 10.2475 7.56818 10.4394C7.76515 10.6288 7.8649 10.8573 7.86742 11.125C7.8649 11.3068 7.81692 11.4722 7.72349 11.6212C7.63258 11.7702 7.51263 11.8889 7.36364 11.9773C7.21717 12.0657 7.05682 12.1098 6.88258 12.1098Z" fill="black"/>
</svg>
