<svg width="21" height="20" viewBox="0 0 21 20" fill="none" xmlns="http://www.w3.org/2000/svg">
<path d="M10.5 13.6328C10.4062 13.6328 10.3203 13.6172 10.2422 13.5859C10.1641 13.5547 10.0859 13.5 10.0078 13.4219L6.46875 9.88281C6.32812 9.74219 6.26172 9.57422 6.26953 9.37891C6.27734 9.18359 6.35156 9.01562 6.49219 8.875C6.63281 8.73438 6.80078 8.66406 6.99609 8.66406C7.19141 8.66406 7.35938 8.73438 7.5 8.875L9.79688 11.1953V3.20312C9.79688 3 9.86328 2.83203 9.99609 2.69922C10.1289 2.56641 10.2969 2.5 10.5 2.5C10.7031 2.5 10.8711 2.56641 11.0039 2.69922C11.1367 2.83203 11.2031 3 11.2031 3.20312V11.1953L13.5234 8.875C13.6641 8.73438 13.832 8.66406 14.0273 8.66406C14.2227 8.66406 14.3906 8.73438 14.5312 8.875C14.6719 9.01562 14.7422 9.18359 14.7422 9.37891C14.7422 9.57422 14.6719 9.74219 14.5312 9.88281L10.9922 13.4219C10.9141 13.5 10.8359 13.5547 10.7578 13.5859C10.6797 13.6172 10.5938 13.6328 10.5 13.6328ZM4.40625 17.5C4.03125 17.5 3.70312 17.3594 3.42187 17.0781C3.14062 16.7969 3 16.4688 3 16.0938V13.4453C3 13.2422 3.06641 13.0742 3.19922 12.9414C3.33203 12.8086 3.5 12.7422 3.70312 12.7422C3.90625 12.7422 4.07422 12.8086 4.20703 12.9414C4.33984 13.0742 4.40625 13.2422 4.40625 13.4453V16.0938H16.5938V13.4453C16.5938 13.2422 16.6602 13.0742 16.793 12.9414C16.9258 12.8086 17.0938 12.7422 17.2969 12.7422C17.5 12.7422 17.668 12.8086 17.8008 12.9414C17.9336 13.0742 18 13.2422 18 13.4453V16.0938C18 16.4688 17.8594 16.7969 17.5781 17.0781C17.2969 17.3594 16.9688 17.5 16.5938 17.5H4.40625Z" fill="black"/>
</svg>
