<svg width="19" height="19" viewBox="0 0 19 19" fill="none" xmlns="http://www.w3.org/2000/svg">
<path d="M17.7954 2.95264C17.7954 2.39258 17.795 2.11235 17.686 1.89844C17.5902 1.71028 17.4378 1.55741 17.2496 1.46153C17.0357 1.35254 16.7551 1.35254 16.195 1.35254H3.39502C2.83497 1.35254 2.55522 1.35254 2.34131 1.46153C2.15315 1.55741 2.00028 1.71028 1.9044 1.89844C1.79541 2.11235 1.79541 2.39258 1.79541 2.95264V3.6899C1.79541 3.93449 1.79541 4.05687 1.82304 4.17196C1.84754 4.274 1.88804 4.37147 1.94287 4.46094C2.00469 4.56182 2.09132 4.64845 2.26416 4.82129L7.3269 9.88403C7.49984 10.057 7.58585 10.143 7.64769 10.2439C7.70252 10.3334 7.74357 10.4312 7.76807 10.5332C7.79541 10.6471 7.79541 10.7681 7.79541 11.0077V15.7635C7.79541 16.6208 7.79541 17.0496 7.97595 17.3078C8.1336 17.5332 8.37681 17.6835 8.64893 17.7237C8.96055 17.7698 9.34412 17.5783 10.1108 17.1949L10.9108 16.7949C11.2319 16.6344 11.392 16.5538 11.5093 16.4341C11.613 16.3282 11.6924 16.201 11.7407 16.0609C11.7954 15.9024 11.7954 15.7225 11.7954 15.3635V11.0151C11.7954 10.7705 11.7954 10.6483 11.823 10.5332C11.8475 10.4312 11.888 10.3334 11.9429 10.2439C12.0043 10.1436 12.0901 10.0579 12.2607 9.88722L12.2642 9.88403L17.3269 4.82129C17.4999 4.64834 17.5858 4.56185 17.6477 4.46094C17.7025 4.37147 17.7436 4.274 17.7681 4.17196C17.7954 4.05805 17.7954 3.93698 17.7954 3.69734V2.95264Z" stroke="black" stroke-width="2" stroke-linecap="round" stroke-linejoin="round"/>
</svg>
