<svg width="23" height="22" viewBox="0 0 23 22" fill="none" xmlns="http://www.w3.org/2000/svg">
<path d="M7.36894 10.9675C7.36894 8.97766 9.01789 7.36413 11.0525 7.36413C13.0872 7.36413 14.737 8.97766 14.737 10.9675C14.737 12.9574 13.0872 14.5709 11.0525 14.5709C9.01789 14.5709 7.36894 12.9574 7.36894 10.9675ZM5.37719 10.9675C5.37719 14.0331 7.91803 16.518 11.0525 16.518C14.187 16.518 16.7279 14.0331 16.7279 10.9675C16.7279 7.902 14.187 5.41707 11.0525 5.41707C7.91803 5.41707 5.37719 7.902 5.37719 10.9675ZM15.6262 5.19699C15.6261 5.45354 15.7038 5.70435 15.8495 5.91772C15.9951 6.13109 16.2022 6.29742 16.4445 6.39569C16.6868 6.49396 16.9535 6.51976 17.2108 6.46981C17.4681 6.41986 17.7045 6.29641 17.89 6.11508C18.0756 5.93375 18.202 5.70267 18.2533 5.45108C18.3045 5.19948 18.2784 4.93866 18.1781 4.7016C18.0778 4.46455 17.9079 4.2619 17.6898 4.11928C17.4718 3.97667 17.2154 3.90049 16.9531 3.90039H16.9526C16.6009 3.90055 16.2638 4.03719 16.0151 4.2803C15.7664 4.52341 15.6266 4.85311 15.6262 5.19699ZM6.58731 19.7661C5.50973 19.7181 4.92404 19.5425 4.53481 19.3942C4.01879 19.1977 3.65061 18.9637 3.2635 18.5857C2.8764 18.2076 2.63678 17.8479 2.43677 17.3432C2.28504 16.9627 2.10555 16.3897 2.05657 15.3359C2.00298 14.1965 1.99229 13.8542 1.99229 10.9676C1.99229 8.08101 2.00387 7.73969 2.05657 6.59935C2.10564 5.54548 2.28646 4.97363 2.43677 4.59202C2.63766 4.08735 2.87693 3.72727 3.2635 3.34868C3.65008 2.9701 4.0179 2.73575 4.53481 2.54015C4.92386 2.39176 5.50973 2.21621 6.58731 2.16831C7.75233 2.1159 8.1023 2.10544 11.0525 2.10544C14.0028 2.10544 14.3531 2.11677 15.5191 2.16831C16.5967 2.2163 17.1814 2.39314 17.5716 2.54015C18.0876 2.73575 18.4558 2.97062 18.8429 3.34868C19.23 3.72675 19.4687 4.08735 19.6696 4.59202C19.8213 4.9725 20.0008 5.54548 20.0498 6.59935C20.1034 7.73969 20.1141 8.08101 20.1141 10.9676C20.1141 13.8542 20.1034 14.1955 20.0498 15.3359C20.0008 16.3897 19.8204 16.9626 19.6696 17.3432C19.4687 17.8479 19.2295 18.208 18.8429 18.5857C18.4563 18.9634 18.0876 19.1977 17.5716 19.3942C17.1825 19.5426 16.5967 19.7182 15.5191 19.7661C14.3541 19.8185 14.0041 19.8289 11.0525 19.8289C8.10098 19.8289 7.75198 19.8185 6.58731 19.7661ZM6.49579 0.223664C5.31919 0.276068 4.51518 0.458529 3.81304 0.725736C3.08587 1.00168 2.47029 1.37187 1.85515 1.97253C1.24001 2.57318 0.862451 3.17617 0.580302 3.88733C0.307084 4.57446 0.120517 5.36034 0.0669341 6.51106C0.0124673 7.66359 0 8.03206 0 10.9675C0 13.903 0.0124673 14.2715 0.0669341 15.424C0.120517 16.5748 0.307084 17.3606 0.580302 18.0477C0.862451 18.7585 1.24009 19.3621 1.85515 19.9625C2.4702 20.5629 3.08587 20.9326 3.81304 21.2093C4.51651 21.4765 5.31919 21.659 6.49579 21.7114C7.67488 21.7638 8.05102 21.7769 11.0525 21.7769C14.054 21.7769 14.4308 21.7647 15.6093 21.7114C16.786 21.659 17.5894 21.4765 18.292 21.2093C19.0188 20.9326 19.6348 20.5632 20.2499 19.9625C20.8651 19.3619 21.2418 18.7585 21.5248 18.0477C21.798 17.3606 21.9854 16.5747 22.0381 15.424C22.0917 14.2706 22.1042 13.903 22.1042 10.9675C22.1042 8.03206 22.0917 7.66359 22.0381 6.51106C21.9845 5.36026 21.798 4.57403 21.5248 3.88733C21.2418 3.1766 20.8641 2.57413 20.2499 1.97253C19.6358 1.37092 19.0188 1.00168 18.2929 0.725736C17.5894 0.458529 16.7859 0.275203 15.6102 0.223664C14.4317 0.171261 14.0549 0.158203 11.0534 0.158203C8.0519 0.158203 7.67488 0.170396 6.49579 0.223664Z" fill="black"/>
</svg>
