<svg width="22" height="22" viewBox="0 0 22 22" fill="none" xmlns="http://www.w3.org/2000/svg">
    <path d="M7.27395 10.8792C7.27395 8.96851 8.85729 7.41918 10.811 7.41918C12.7646 7.41918 14.3488 8.96851 14.3488 10.8792C14.3488 12.7899 12.7646 14.3392 10.811 14.3392C8.85729 14.3392 7.27395 12.7899 7.27395 10.8792ZM5.36146 10.8792C5.36146 13.8227 7.80119 16.2088 10.811 16.2088C13.8207 16.2088 16.2605 13.8227 16.2605 10.8792C16.2605 7.93565 13.8207 5.5496 10.811 5.5496C7.80119 5.5496 5.36146 7.93565 5.36146 10.8792ZM15.2027 5.33828C15.2026 5.58462 15.2772 5.82545 15.417 6.03033C15.5569 6.23521 15.7557 6.39492 15.9884 6.48928C16.221 6.58364 16.4771 6.60841 16.7242 6.56045C16.9712 6.51249 17.1982 6.39395 17.3764 6.21983C17.5545 6.04572 17.6759 5.82384 17.7252 5.58225C17.7744 5.34067 17.7493 5.09023 17.653 4.86261C17.5567 4.63498 17.3935 4.4404 17.1842 4.30346C16.9748 4.16652 16.7286 4.09337 16.4767 4.09328H16.4762C16.1386 4.09343 15.8148 4.22463 15.576 4.45807C15.3372 4.69151 15.203 5.00809 15.2027 5.33828ZM6.52342 19.3276C5.48872 19.2815 4.92634 19.113 4.5526 18.9706C4.05711 18.7819 3.70358 18.5572 3.33188 18.1942C2.96018 17.8312 2.7301 17.4858 2.53805 17.0012C2.39236 16.6358 2.22001 16.0856 2.17297 15.0737C2.12152 13.9797 2.11125 13.651 2.11125 10.8793C2.11125 8.10753 2.12237 7.7798 2.17297 6.68483C2.22009 5.67291 2.39372 5.1238 2.53805 4.75738C2.73095 4.27279 2.96069 3.92704 3.33188 3.56352C3.70307 3.2 4.05626 2.97498 4.5526 2.78716C4.92617 2.64467 5.48872 2.47611 6.52342 2.43011C7.64209 2.3798 7.97813 2.36975 10.811 2.36975C13.6438 2.36975 13.9802 2.38063 15.0998 2.43011C16.1345 2.4762 16.6959 2.646 17.0706 2.78716C17.5661 2.97498 17.9196 3.2005 18.2913 3.56352C18.663 3.92654 18.8922 4.27279 19.0851 4.75738C19.2308 5.12273 19.4032 5.67291 19.4502 6.68483C19.5017 7.7798 19.5119 8.10753 19.5119 10.8793C19.5119 13.651 19.5017 13.9787 19.4502 15.0737C19.4031 16.0856 19.2299 16.6357 19.0851 17.0012C18.8922 17.4858 18.6625 17.8315 18.2913 18.1942C17.9201 18.5569 17.5661 18.7819 17.0706 18.9706C16.697 19.113 16.1345 19.2816 15.0998 19.3276C13.9811 19.3779 13.6451 19.388 10.811 19.388C7.97685 19.388 7.64175 19.3779 6.52342 19.3276ZM6.43555 0.562856C5.30576 0.613175 4.53375 0.788375 3.85954 1.04495C3.16131 1.30991 2.57023 1.66538 1.97957 2.24213C1.3889 2.81888 1.02637 3.39787 0.755452 4.08074C0.493106 4.74052 0.313963 5.49513 0.262513 6.60006C0.210213 7.70673 0.198242 8.06053 0.198242 10.8792C0.198242 13.6978 0.210213 14.0517 0.262513 15.1583C0.313963 16.2633 0.493106 17.0179 0.755452 17.6776C1.02637 18.3601 1.38899 18.9398 1.97957 19.5163C2.57014 20.0928 3.16131 20.4477 3.85954 20.7134C4.53502 20.97 5.30576 21.1452 6.43555 21.1955C7.56771 21.2458 7.92889 21.2584 10.811 21.2584C13.693 21.2584 14.0548 21.2467 15.1864 21.1955C16.3162 21.1452 17.0877 20.97 17.7624 20.7134C18.4602 20.4477 19.0517 20.093 19.6424 19.5163C20.233 18.9395 20.5948 18.3601 20.8665 17.6776C21.1288 17.0179 21.3088 16.2633 21.3594 15.1583C21.4109 14.0508 21.4228 13.6978 21.4228 10.8792C21.4228 8.06053 21.4109 7.70673 21.3594 6.60006C21.308 5.49505 21.1288 4.74011 20.8665 4.08074C20.5948 3.39829 20.2321 2.81979 19.6424 2.24213C19.0526 1.66446 18.4602 1.30991 17.7632 1.04495C17.0877 0.788375 16.3162 0.612344 15.1872 0.562856C14.0556 0.512538 13.6939 0.5 10.8118 0.5C7.92973 0.5 7.56771 0.511708 6.43555 0.562856Z" fill="black"/>
</svg>
