<svg width="110" height="19" viewBox="0 0 110 19" fill="none" xmlns="http://www.w3.org/2000/svg">
<g clip-path="url(#clip0_1770_11126)">
<path d="M107.861 0.394531H2.27816C1.14833 0.394531 0.232422 1.39698 0.232422 2.63356V16.3698C0.232422 17.6064 1.14833 18.6088 2.27816 18.6088H107.861C108.991 18.6088 109.907 17.6064 109.907 16.3698V2.63356C109.907 1.39698 108.991 0.394531 107.861 0.394531Z" fill="#1871B6"/>
<path d="M62.3346 6.00859C61.9124 6.39953 61.4578 6.73716 61.0357 7.09256C60.6298 7.44796 60.2239 7.7856 59.818 8.141C59.542 8.37201 59.266 8.56748 59.0062 8.81626C58.8276 8.97619 58.649 9.13612 58.4542 9.27828C58.3568 9.34936 58.4055 9.43821 58.4542 9.50929C58.5841 9.65145 58.6977 9.77584 58.8438 9.90023C59.1036 10.149 59.3471 10.4156 59.6069 10.6821C59.9154 10.9842 60.2401 11.2508 60.5324 11.5528C60.7434 11.8016 60.987 12.0149 61.2305 12.2281C61.6851 12.6368 62.091 13.0988 62.5456 13.5075C62.5781 13.5253 62.6106 13.5609 62.5944 13.6142C62.5781 13.6675 62.5132 13.6497 62.4645 13.6497C61.9449 13.6497 61.4091 13.6497 60.8896 13.6497C59.1361 13.6497 57.3664 13.6497 55.6129 13.6497C55.4343 13.6497 55.2719 13.703 55.0933 13.6497C55.0121 13.6319 54.9634 13.5964 54.8985 13.5253C54.249 12.7967 53.6158 12.0682 52.9826 11.3396C52.6254 10.9309 52.2358 10.5399 51.8948 10.1135C51.7812 9.98908 51.6513 9.88246 51.5539 9.7403C51.5214 9.70476 51.4727 9.66922 51.424 9.65145C51.359 9.61591 51.3265 9.63368 51.3428 9.72253C51.4077 10.9487 51.3753 12.1748 51.3753 13.4009C51.3753 13.6497 51.3753 13.6497 51.1317 13.6497C49.4756 13.6497 47.8196 13.6497 46.1635 13.6497C46.0174 13.6497 45.9849 13.6142 46.0174 13.4542C46.0661 13.241 46.0498 13.0278 46.0498 12.8323C46.0498 10.611 46.0498 8.38978 46.0498 6.18629C46.0498 6.04413 46.0823 5.99082 46.2122 5.99082C47.8196 5.99082 49.4269 5.99082 51.0505 5.99082C51.1317 5.99082 51.2129 6.02636 51.3103 6.02636C51.359 6.02636 51.359 6.0619 51.359 6.09744C51.359 6.2396 51.3915 6.36399 51.3915 6.50615C51.3915 7.3058 51.3915 8.10546 51.3915 8.90511C51.3915 9.01173 51.3753 9.11835 51.359 9.22497C51.359 9.27828 51.359 9.33159 51.4402 9.27828C51.7 9.11835 51.9273 8.90511 52.1383 8.69187C52.3332 8.4964 52.5442 8.33647 52.7553 8.17654C53.4372 7.64343 54.0704 7.05702 54.7361 6.50615C54.8822 6.38176 55.0446 6.27514 55.1583 6.13298C55.2881 5.97305 55.4667 5.99082 55.6291 5.99082C56.9604 5.99082 58.2756 5.99082 59.6069 5.99082C60.3863 5.99082 61.1656 5.99082 61.9612 5.99082C62.091 5.99082 62.2047 5.99082 62.3508 6.04413L62.3346 6.00859Z" fill="#F8E741"/>
</g>
<defs>
<clipPath id="clip0_1770_11126">
<rect width="109.674" height="18.2143" fill="white" transform="translate(0.232422 0.394531)"/>
</clipPath>
</defs>
</svg>
