<svg width="17" height="9" viewBox="0 0 17 9" fill="none" xmlns="http://www.w3.org/2000/svg">
<path d="M16.3346 1.00859C15.9124 1.39953 15.4578 1.73716 15.0357 2.09256C14.6298 2.44796 14.2239 2.7856 13.818 3.141C13.542 3.37201 13.266 3.56748 13.0062 3.81626C12.8276 3.97619 12.649 4.13612 12.4542 4.27828C12.3568 4.34936 12.4055 4.43821 12.4542 4.50929C12.5841 4.65145 12.6977 4.77584 12.8438 4.90023C13.1036 5.14901 13.3471 5.41556 13.6069 5.68211C13.9154 5.9842 14.2401 6.25075 14.5324 6.55284C14.7434 6.80162 14.987 7.01486 15.2305 7.2281C15.6851 7.63681 16.091 8.09883 16.5456 8.50754C16.5781 8.52532 16.6106 8.56085 16.5944 8.61417C16.5781 8.66748 16.5132 8.6497 16.4645 8.6497C15.9449 8.6497 15.4091 8.6497 14.8896 8.6497C13.1361 8.6497 11.3664 8.6497 9.61286 8.6497C9.43426 8.6497 9.2719 8.70302 9.09331 8.6497C9.01213 8.63194 8.96342 8.59639 8.89847 8.52531C8.24903 7.79674 7.61583 7.06817 6.98263 6.3396C6.62543 5.93089 6.23576 5.53995 5.89481 5.11347C5.78116 4.98908 5.65127 4.88246 5.55385 4.7403C5.52138 4.70476 5.47267 4.66922 5.42396 4.65145C5.35902 4.61591 5.32655 4.63368 5.34278 4.72253C5.40773 5.94866 5.37526 7.17479 5.37526 8.40093C5.37526 8.64971 5.37526 8.6497 5.13172 8.6497C3.47564 8.6497 1.81957 8.6497 0.16349 8.6497C0.017366 8.6497 -0.0151063 8.61416 0.0173658 8.45423C0.0660739 8.24099 0.0498355 8.02775 0.0498355 7.83228C0.0498355 5.61103 0.0498355 3.38978 0.0498355 1.18629C0.0498355 1.04413 0.0823082 0.990822 0.212196 0.990822C1.81956 0.990822 3.42693 0.990822 5.05053 0.990822C5.13171 0.990822 5.21289 1.02636 5.31031 1.02636C5.35902 1.02636 5.35902 1.0619 5.35902 1.09744C5.35902 1.2396 5.39149 1.36399 5.39149 1.50615C5.39149 2.3058 5.39149 3.10546 5.39149 3.90511C5.39149 4.01173 5.37526 4.11835 5.35902 4.22497C5.35902 4.27828 5.35902 4.33159 5.4402 4.27828C5.69998 4.11835 5.92728 3.90511 6.13835 3.69187C6.33318 3.4964 6.54425 3.33647 6.75532 3.17654C7.43723 2.64343 8.07044 2.05702 8.73611 1.50615C8.88224 1.38176 9.0446 1.27514 9.15825 1.13298C9.28814 0.973052 9.46673 0.990822 9.62909 0.990822C10.9604 0.990822 12.2756 0.990822 13.6069 0.990822C14.3863 0.990822 15.1656 0.990822 15.9612 0.990822C16.091 0.990822 16.2047 0.990822 16.3508 1.04413L16.3346 1.00859Z" fill="#F8E741"/>
</svg>
