<svg width="25" height="25" viewBox="0 0 25 25" fill="none" xmlns="http://www.w3.org/2000/svg">
<path d="M9.91671 7.75H6.62793C5.50782 7.75 4.94735 7.75 4.51953 7.96799C4.14321 8.15973 3.83747 8.46547 3.64572 8.8418C3.42773 9.26962 3.42773 9.83009 3.42773 10.9502V16.5502C3.42773 17.6703 3.42773 18.2296 3.64572 18.6574C3.83747 19.0337 4.14321 19.3405 4.51953 19.5322C4.94694 19.75 5.50673 19.75 6.62464 19.75H18.2308C19.3487 19.75 19.9077 19.75 20.3351 19.5322C20.7115 19.3405 21.0182 19.0337 21.21 18.6574C21.4277 18.23 21.4277 17.671 21.4277 16.5531V10.9469C21.4277 9.82899 21.4277 9.2692 21.21 8.8418C21.0182 8.46547 20.7115 8.15973 20.3351 7.96799C19.9073 7.75 19.348 7.75 18.2279 7.75H14.9386M9.91671 7.75H9.97852M9.91671 7.75C9.92924 7.75001 9.94242 7.75 9.9563 7.75L9.97852 7.75M9.91671 7.75C9.81059 7.74995 9.75113 7.74941 9.7041 7.74414C9.11652 7.67835 8.71352 7.11908 8.83691 6.54084C8.8484 6.48703 8.87109 6.41894 8.91604 6.28412L8.91797 6.27841C8.9693 6.12443 8.99496 6.04743 9.02331 5.97949C9.3136 5.28389 9.97095 4.81083 10.7227 4.75541C10.7961 4.75 10.8767 4.75 11.0391 4.75H13.8163C13.9786 4.75 14.06 4.75 14.1334 4.75541C14.8851 4.81083 15.5417 5.28389 15.832 5.97949C15.8604 6.04743 15.8862 6.12434 15.9375 6.27832C15.9837 6.41699 16.0068 6.48636 16.0185 6.54093C16.1419 7.11917 15.7395 7.67835 15.1519 7.74414C15.1049 7.74941 15.0449 7.74995 14.9386 7.75M9.97852 7.75H14.8767M14.8767 7.75H14.9386M14.8767 7.75L14.8989 7.75C14.9128 7.75 14.926 7.75001 14.9386 7.75M12.4277 16.75C10.7709 16.75 9.42773 15.4069 9.42773 13.75C9.42773 12.0931 10.7709 10.75 12.4277 10.75C14.0846 10.75 15.4277 12.0931 15.4277 13.75C15.4277 15.4069 14.0846 16.75 12.4277 16.75Z" stroke="black" stroke-width="2" stroke-linecap="round" stroke-linejoin="round"/>
</svg>
