<svg width="22" height="22" viewBox="0 0 22 22" fill="none" xmlns="http://www.w3.org/2000/svg">
    <path d="M18.8488 5.02719C18.6399 4.68901 18.2971 4.44135 17.8953 4.34035C17.4928 4.23934 17.0647 4.29246 16.7044 4.48774L15.7446 5.00699H15.7438C15.008 4.41965 14.1646 3.96175 13.2543 3.65647V2.6202C13.2543 1.80615 12.5536 1.12378 11.6871 1.12378H9.48061C8.61408 1.12378 7.91337 1.80615 7.91337 2.6202V3.65647C7.00302 3.96175 6.1596 4.41965 5.42386 5.00774L4.46408 4.48774C4.10377 4.29247 3.67488 4.23933 3.27232 4.34035C2.87054 4.44135 2.52778 4.68901 2.31891 5.02719L1.21723 6.81991C1.00918 7.15809 0.952566 7.56064 1.06019 7.93772C1.16781 8.31558 1.43087 8.63729 1.79118 8.83258L2.74779 9.35183C2.5756 10.2437 2.5756 11.158 2.74858 12.0499L1.79198 12.5691L1.79118 12.5684C1.43087 12.7644 1.1678 13.0861 1.06019 13.4632C0.952572 13.8411 1.00917 14.2436 1.21723 14.5818L2.3205 16.3745C2.52855 16.7127 2.87134 16.9604 3.27312 17.0614C3.6757 17.1624 4.10377 17.1093 4.46488 16.914L5.42466 16.3947C6.16045 16.9821 7.00385 17.44 7.91335 17.7445V18.7815C7.91335 19.5956 8.61406 20.2779 9.48059 20.2779H11.6864C12.5537 20.2779 13.2537 19.5956 13.2537 18.7815L13.2545 17.7445C14.1648 17.44 15.0082 16.9821 15.744 16.3947L16.7038 16.914H16.703C17.0641 17.1093 17.4929 17.1624 17.8947 17.0614C18.2973 16.9604 18.6401 16.7127 18.8481 16.3745L19.9506 14.5818C20.1587 14.2436 20.2153 13.8411 20.1076 13.464C20 13.0861 19.737 12.7644 19.3766 12.5691L18.42 12.0499V12.0506C18.5922 11.158 18.5922 10.2437 18.42 9.35182L19.3766 8.83257V8.83331C19.737 8.63729 20 8.31556 20.1076 7.93845C20.2153 7.5606 20.1587 7.15807 19.9506 6.81989L18.8488 5.02719Z" stroke="black" stroke-width="2" stroke-linecap="round" stroke-linejoin="round"/>
    <ellipse cx="10.5837" cy="10.7008" rx="2.39427" ry="2.39427" stroke="black" stroke-width="2" stroke-linecap="round" stroke-linejoin="round"/>
</svg>
