<svg width="22" height="22" viewBox="0 0 22 22" fill="none" xmlns="http://www.w3.org/2000/svg">
<path d="M19.6598 5.5167C19.4509 5.17851 19.1082 4.93085 18.7064 4.82985C18.3038 4.72884 17.8757 4.78196 17.5154 4.97725L16.5556 5.49649C15.8198 4.90915 14.9756 4.45125 14.0653 4.14598V3.1097C14.0653 2.29565 13.3646 1.61328 12.4981 1.61328H10.2916C9.42512 1.61328 8.72441 2.29565 8.72441 3.1097V4.14598C7.81405 4.45125 6.97063 4.90915 6.2349 5.49724L5.27512 4.97725C4.9148 4.78197 4.48592 4.72884 4.08336 4.82985C3.68158 4.93086 3.33881 5.17851 3.12994 5.5167L2.02827 7.30941C1.82021 7.64759 1.7636 8.05014 1.87122 8.42722C1.97884 8.80508 2.24191 9.12679 2.60222 9.32209L3.55882 9.84134C3.38663 10.7332 3.38663 11.6475 3.55962 12.5394L2.60302 13.0586L2.60222 13.0579C2.24191 13.2539 1.97883 13.5756 1.87122 13.9528C1.76361 14.3306 1.82021 14.7331 2.02827 15.0713L3.13153 16.864C3.33959 17.2022 3.68237 17.4499 4.08416 17.5509C4.48673 17.6519 4.9148 17.5988 5.27591 17.4035L6.2357 16.8842C6.97149 17.4716 7.81489 17.9295 8.72439 18.234V19.271C8.72439 20.0851 9.4251 20.7674 10.2916 20.7674H12.4975C13.3648 20.7674 14.0647 20.0851 14.0647 19.271L14.0655 18.234C14.9759 17.9295 15.8193 17.4716 16.555 16.8842L17.5148 17.4035C17.8759 17.5988 18.304 17.6519 18.7057 17.5509C19.1083 17.4499 19.4511 17.2022 19.6592 16.864L20.7616 15.0713C20.9697 14.7331 21.0263 14.3306 20.9187 13.9535C20.8111 13.5756 20.548 13.2539 20.1877 13.0586L19.2311 12.5394C19.4033 11.6468 19.4033 10.7332 19.2311 9.84132L20.1877 9.32207C20.548 9.12604 20.8111 8.80506 20.9187 8.42795C21.0263 8.0501 20.9697 7.64758 20.7616 7.30939L19.6598 5.5167Z" stroke="white" stroke-width="2" stroke-linecap="round" stroke-linejoin="round"/>
<ellipse cx="11.3948" cy="11.1892" rx="2.39427" ry="2.39427" stroke="white" stroke-width="2" stroke-linecap="round" stroke-linejoin="round"/>
</svg>
