<svg width="23" height="22" viewBox="0 0 23 22" fill="none" xmlns="http://www.w3.org/2000/svg">
    <path d="M19.7371 5.58213C19.5282 5.24394 19.1854 4.99628 18.7837 4.89528C18.3811 4.79427 17.953 4.84739 17.5927 5.04267L16.6329 5.56192H16.6321C15.8963 4.97458 15.0529 4.51668 14.1426 4.2114V3.17513C14.1426 2.36108 13.4419 1.67871 12.5754 1.67871H10.3689C9.50239 1.67871 8.80168 2.36108 8.80168 3.17513V4.2114C7.89132 4.51668 7.0479 4.97458 6.31217 5.56267L5.35239 5.04267C4.99207 4.8474 4.56319 4.79426 4.16063 4.89528C3.75885 4.99629 3.41608 5.24394 3.20721 5.58213L2.10554 7.37484C1.89748 7.71302 1.84087 8.11557 1.94849 8.49265C2.05611 8.87051 2.31918 9.19222 2.67949 9.38752L3.63609 9.90677C3.4639 10.7986 3.4639 11.7129 3.63689 12.6048L2.68029 13.1241L2.67949 13.1233C2.31918 13.3193 2.0561 13.6411 1.94849 14.0182C1.84088 14.396 1.89748 14.7986 2.10554 15.1367L3.20881 16.9295C3.41686 17.2676 3.75964 17.5153 4.16143 17.6163C4.564 17.7173 4.99207 17.6642 5.35318 17.4689L6.31297 16.9497C7.04876 17.537 7.89216 17.9949 8.80166 18.2994V19.3365C8.80166 20.1505 9.50237 20.8329 10.3689 20.8329H12.5747C13.4421 20.8329 14.142 20.1505 14.142 19.3365L14.1428 18.2994C15.0531 17.9949 15.8965 17.537 16.6323 16.9497L17.5921 17.4689H17.5913C17.9524 17.6642 18.3813 17.7173 18.783 17.6163C19.1856 17.5153 19.5284 17.2676 19.7364 16.9295L20.8389 15.1367C21.047 14.7986 21.1036 14.396 20.9959 14.0189C20.8883 13.6411 20.6253 13.3194 20.265 13.1241L19.3084 12.6048V12.6056C19.4805 11.7129 19.4805 10.7986 19.3084 9.90675L20.265 9.3875V9.38825C20.6253 9.19222 20.8883 8.87049 20.9959 8.49338C21.1036 8.11553 21.047 7.71301 20.8389 7.37482L19.7371 5.58213Z" stroke="white" stroke-width="2" stroke-linecap="round" stroke-linejoin="round"/>
    <ellipse cx="11.4723" cy="11.2556" rx="2.39427" ry="2.39427" stroke="white" stroke-width="2" stroke-linecap="round" stroke-linejoin="round"/>
</svg>
