<svg width="56" height="56" viewBox="0 0 56 56" fill="none" xmlns="http://www.w3.org/2000/svg">
<g clip-path="url(#clip0_1770_11115)">
<path d="M55.99 28.4633C55.99 43.6653 43.6663 55.989 28.4642 55.989C13.2622 55.989 0.938477 43.6653 0.938477 28.4633C0.938477 13.2612 13.2622 0.9375 28.4642 0.9375C43.6663 0.9375 55.99 13.2612 55.99 28.4633Z" fill="#0D0D0D"/>
<path d="M26.1606 17.8577C26.6373 17.4406 26.6856 16.716 26.2685 16.2393C25.8514 15.7626 25.1268 15.7143 24.6501 16.1314L18.5475 21.4712C18.5235 21.4916 18.5002 21.5131 18.4776 21.5357C18.3826 21.6305 18.3074 21.7385 18.2525 21.8541C18.1782 22.0102 18.1415 22.1787 18.1416 22.3468C18.1415 22.5149 18.1782 22.6835 18.2525 22.8395C18.3074 22.9551 18.3826 23.0631 18.4776 23.1579C18.5002 23.1805 18.5235 23.202 18.5475 23.2224L24.6501 28.5622C25.1268 28.9793 25.8514 28.931 26.2685 28.4543C26.6856 27.9776 26.6373 27.253 26.1606 26.8359L22.341 23.4937H35.7275C36.3609 23.4937 36.8744 22.9802 36.8744 22.3468C36.8744 21.7134 36.3609 21.1999 35.7275 21.1999H22.341L26.1606 17.8577Z" fill="white"/>
<path d="M30.767 30.0914L34.5866 33.4336H21.2C20.5666 33.4336 20.0531 33.9471 20.0531 34.5805C20.0531 35.2139 20.5666 35.7274 21.2 35.7274H34.5866L30.767 39.0696C30.2903 39.4867 30.242 40.2113 30.6591 40.688C31.0762 41.1647 31.8007 41.213 32.2774 40.7959L38.38 35.4561C38.4041 35.4357 38.4274 35.4142 38.4501 35.3915C38.545 35.2967 38.6202 35.1888 38.6751 35.0732C38.7494 34.9171 38.786 34.7486 38.786 34.5805C38.786 34.4124 38.7494 34.2438 38.6751 34.0878C38.6202 33.9722 38.545 33.8643 38.4501 33.7695C38.4275 33.7468 38.4041 33.7253 38.3801 33.7049L32.2774 28.3651C31.8007 27.948 31.0762 27.9963 30.6591 28.473C30.242 28.9497 30.2903 29.6743 30.767 30.0914Z" fill="white"/>
</g>
<defs>
<clipPath id="clip0_1770_11115">
<rect width="55.0515" height="55.0515" fill="white" transform="translate(0.938477 0.9375)"/>
</clipPath>
</defs>
</svg>
