<svg width="20" height="24" viewBox="0 0 20 24" fill="none" xmlns="http://www.w3.org/2000/svg">
    <path fill-rule="evenodd" clip-rule="evenodd" d="M14.1131 8.42634C15.554 9.53599 17.2795 10.1289 19.0473 10.1217V6.32614C18.6998 6.32718 18.3532 6.28688 18.0137 6.20595V9.22972C16.2419 9.23313 14.5139 8.63346 13.0737 7.51541V15.3215C13.0694 16.6025 12.7451 17.8582 12.1353 18.9557C11.5256 20.0531 10.653 20.9514 9.61023 21.5551C8.56742 22.1589 7.39323 22.4457 6.21216 22.3851C5.03109 22.3245 3.88717 21.9188 2.9017 21.2109C3.81324 22.2101 4.97795 22.8937 6.24837 23.1753C7.51878 23.4568 8.83774 23.3236 10.0382 22.7926C11.2387 22.2615 12.2668 21.3565 12.9922 20.1921C13.7176 19.0277 14.1077 17.6562 14.1131 16.2514V8.42634ZM15.3919 4.5549C14.6592 3.69452 14.2096 2.59585 14.1131 1.42991V0.936493H13.1321C13.2534 1.67762 13.5173 2.3828 13.9066 3.0062C14.2959 3.62961 14.802 4.15727 15.3919 4.5549ZM5.17318 18.2061C4.83317 17.7245 4.6248 17.1491 4.57179 16.5454C4.51878 15.9418 4.62326 15.3341 4.87334 14.7916C5.12341 14.2491 5.50904 13.7936 5.98633 13.4769C6.46363 13.1601 7.01341 12.9949 7.57312 12.9999C7.88214 12.9998 8.18935 13.0511 8.48405 13.1518V9.22972C8.13955 9.1803 7.7921 9.15915 7.44466 9.16646V12.2155C6.72708 11.9698 5.95042 12.0257 5.26914 12.3721C4.58786 12.7184 4.05189 13.3299 3.76783 14.0849C3.48377 14.8399 3.47243 15.683 3.73607 16.4467C3.99972 17.2103 4.51902 17.8384 5.1907 18.2061H5.17318Z" fill="black"/>
    <path fill-rule="evenodd" clip-rule="evenodd" d="M13.0732 7.49011C14.5134 8.60815 16.2414 9.20782 18.0132 9.20442V6.18065C17.0038 5.94942 16.0872 5.38078 15.3919 4.5549C14.802 4.15727 14.2959 3.62961 13.9066 3.0062C13.5173 2.3828 13.2534 1.67762 13.1321 0.936493H10.5507V16.2514C10.5482 16.9293 10.3499 17.5894 9.98359 18.139C9.61723 18.6885 9.1012 19.1 8.50795 19.3156C7.9147 19.5313 7.27401 19.5402 6.67582 19.3412C6.07764 19.1422 5.5525 18.7453 5.17318 18.2061C4.57205 17.8776 4.09013 17.3391 3.8061 16.6778C3.52208 16.0164 3.45201 15.2707 3.6072 14.5609C3.7624 13.8511 4.1338 13.2187 4.6615 12.7656C5.18919 12.3125 5.84239 12.0653 6.51571 12.0637C6.82465 12.0648 7.13169 12.116 7.42664 12.2155V9.16646C6.15227 9.1996 4.91456 9.63513 3.86545 10.4196C2.81634 11.204 2.00148 12.3032 1.5209 13.5823C1.04032 14.8614 0.914938 16.2646 1.16014 17.6198C1.40534 18.9749 2.01096 20.2231 2.9017 21.2109C3.88738 21.9239 5.03259 22.3338 6.21631 22.397C7.40004 22.4603 8.57743 22.1745 9.62308 21.5701C10.6687 20.9658 11.5435 20.0654 12.1541 18.9651C12.7648 17.8647 13.0885 16.6055 13.0907 15.3215L13.0732 7.49011Z" fill="black"/>
    <path fill-rule="evenodd" clip-rule="evenodd" d="M18.0132 6.18065L18.0136 5.36435C17.0865 5.36862 16.1775 5.0881 15.3919 4.5549C16.0855 5.38316 17.0028 5.95227 18.0132 6.18065ZM13.1321 0.936493C13.1321 0.790997 13.0911 0.638914 13.0735 0.493419V0H9.51159V15.3213C9.50849 16.1792 9.19134 17.0007 8.62973 17.6056C8.06813 18.2104 7.30795 18.5492 6.51604 18.5475C6.04975 18.55 5.58971 18.4332 5.17318 18.2061C5.5525 18.7453 6.07764 19.1422 6.67582 19.3412C7.27401 19.5402 7.9147 19.5313 8.50795 19.3156C9.1012 19.1 9.61723 18.6885 9.98359 18.139C10.3499 17.5894 10.5482 16.9293 10.5507 16.2514V0.936493H13.1321ZM7.42697 9.15988V8.29323C5.96124 8.07752 4.47129 8.40598 3.19994 9.22507C1.92859 10.0442 0.950806 11.3056 0.425941 12.8038C-0.0989239 14.3019 -0.13992 15.9485 0.309633 17.4752C0.759187 19.0018 1.67296 20.3188 2.9017 21.2109C2.0177 20.2208 1.41885 18.9729 1.17866 17.6202C0.938462 16.2675 1.06714 14.8683 1.54898 13.5935C2.03081 12.3187 2.84494 11.2236 3.8919 10.4418C4.93886 9.6601 6.17333 9.22563 7.44448 9.1915L7.42697 9.15988Z" fill="black"/>
</svg>
