<svg width="16" height="21" viewBox="0 0 16 21" fill="none" xmlns="http://www.w3.org/2000/svg">
<path d="M10.9375 2.25391L14.063 5.37939C14.4089 5.72529 14.5809 5.89777 14.7046 6.0996C14.8142 6.27854 14.8953 6.47366 14.9443 6.67773C14.9857 6.85016 14.9963 7.03091 14.9991 7.31641C15 7.41201 15 7.51937 15 7.64209V16.12C15 17.2379 15 17.7969 14.7822 18.2243C14.5905 18.6006 14.2837 18.9069 13.9074 19.0986C13.48 19.3164 12.921 19.3164 11.8031 19.3164L4.19694 19.3164C3.079 19.3164 2.51921 19.3164 2.0918 19.0986C1.71547 18.9069 1.40973 18.6006 1.21799 18.2243C1 17.7965 1 17.2367 1 16.1166V4.5166C1 3.3965 1 2.83603 1.21799 2.4082C1.40973 2.03188 1.71547 1.72614 2.0918 1.53439C2.51962 1.31641 3.08009 1.31641 4.2002 1.31641H8.67471C8.79728 1.31641 8.90451 1.31641 9 1.31728C9.28564 1.31988 9.46634 1.33025 9.63884 1.37167C9.84291 1.42066 10.0379 1.50167 10.2168 1.61133C10.4186 1.73497 10.5918 1.90822 10.9375 2.25391Z" fill="white"/>
<path d="M8 16.3164V10.3164M8 10.3164L5 12.3164M8 10.3164L11 12.3164M9 1.31728C8.90451 1.31641 8.79728 1.31641 8.67471 1.31641H4.2002C3.08009 1.31641 2.51962 1.31641 2.0918 1.53439C1.71547 1.72614 1.40973 2.03188 1.21799 2.4082C1 2.83603 1 3.3965 1 4.5166V16.1166C1 17.2367 1 17.7965 1.21799 18.2243C1.40973 18.6006 1.71547 18.9069 2.0918 19.0986C2.51921 19.3164 3.079 19.3164 4.19694 19.3164L11.8031 19.3164C12.921 19.3164 13.48 19.3164 13.9074 19.0986C14.2837 18.9069 14.5905 18.6006 14.7822 18.2243C15 17.7969 15 17.2379 15 16.12V7.64209C15 7.51937 15 7.41201 14.9991 7.31641M9 1.31728C9.28564 1.31988 9.46634 1.33025 9.63884 1.37167C9.84291 1.42066 10.0379 1.50167 10.2168 1.61133C10.4186 1.73497 10.5918 1.90822 10.9375 2.25391L14.063 5.37939C14.4089 5.72529 14.5809 5.89777 14.7046 6.0996C14.8142 6.27854 14.8953 6.47366 14.9443 6.67773C14.9857 6.85016 14.9963 7.03091 14.9991 7.31641M9 1.31728V4.11641C9 5.23651 9 5.79617 9.21799 6.224C9.40973 6.60032 9.71547 6.90689 10.0918 7.09863C10.5192 7.31641 11.079 7.31641 12.1969 7.31641H14.9991M14.9991 7.31641H15.0002" stroke="black" stroke-width="2" stroke-linecap="round" stroke-linejoin="round"/>
</svg>
