<svg width="21" height="22" viewBox="0 0 21 22" fill="none" xmlns="http://www.w3.org/2000/svg">
    <path d="M0 21.3376L1.45275 15.6925C0.281144 13.4934 -0.0910877 10.9273 0.404362 8.46501C0.899812 6.00272 2.22971 3.80943 4.15001 2.2876C6.07032 0.76577 8.45223 0.0174882 10.8586 0.180065C13.2651 0.342642 15.5346 1.40517 17.2507 3.17268C18.9669 4.94019 20.0146 7.29411 20.2015 9.8025C20.3885 12.3109 19.7022 14.8055 18.2685 16.8285C16.8349 18.8516 14.7501 20.2674 12.3966 20.8161C10.0432 21.3649 7.5791 21.0097 5.4564 19.8159L0 21.3376ZM5.71949 17.7035L6.05694 17.9123C7.59446 18.8631 9.39026 19.2566 11.1645 19.0314C12.9387 18.8062 14.5917 17.975 15.8659 16.6673C17.14 15.3596 17.9638 13.6488 18.2088 11.8017C18.4538 9.95452 18.1062 8.07468 17.2203 6.45512C16.3343 4.83557 14.9598 3.56726 13.3109 2.84785C11.6619 2.12844 9.83119 1.99834 8.10397 2.47782C6.37676 2.9573 4.85008 4.01944 3.76185 5.4987C2.67362 6.97797 2.08496 8.79127 2.08761 10.656C2.08617 12.2022 2.49602 13.7185 3.27155 15.0361L3.48317 15.4001L2.671 18.5508L5.71949 17.7035Z" fill="black"/>
    <path fill-rule="evenodd" clip-rule="evenodd" d="M13.9096 12.1056C13.7118 11.9391 13.4802 11.8219 13.2324 11.763C12.9846 11.704 12.7272 11.7049 12.4798 11.7654C12.108 11.9265 11.8678 12.5352 11.6276 12.8395C11.5769 12.9125 11.5025 12.9637 11.4182 12.9834C11.334 13.0032 11.2457 12.9902 11.17 12.9469C9.80896 12.3908 8.66811 11.3708 7.93278 10.0528C7.87006 9.97053 7.84037 9.8661 7.84997 9.76148C7.85958 9.65685 7.90771 9.56019 7.98425 9.49185C8.25217 9.21513 8.44889 8.87238 8.5562 8.49531C8.58003 8.07939 8.4887 7.6651 8.2931 7.30184C8.14189 6.79256 7.85412 6.33908 7.46378 5.99499C7.26245 5.90051 7.03923 5.86884 6.82103 5.90378C6.60283 5.93872 6.39899 6.03879 6.23409 6.19191C5.94781 6.4496 5.72058 6.77102 5.56913 7.13247C5.41769 7.49393 5.34588 7.88623 5.359 8.28048C5.35989 8.50188 5.38678 8.72232 5.43908 8.93689C5.57189 9.45241 5.77613 9.94494 6.04534 10.3989C6.23958 10.7466 6.4515 11.0833 6.68021 11.4074C7.42348 12.4719 8.35779 13.3758 9.43128 14.0688C9.96997 14.421 10.5457 14.7073 11.1471 14.9221C11.7719 15.2176 12.4617 15.331 13.1432 15.2503C13.5316 15.189 13.8995 15.0291 14.2147 14.7845C14.5298 14.54 14.7825 14.2184 14.9506 13.848C15.0493 13.6243 15.0793 13.3741 15.0364 13.1319C14.9334 12.6366 14.2986 12.3442 13.9096 12.1056Z" fill="black"/>
</svg>
