<svg width="23" height="19" viewBox="0 0 23 19" fill="none" xmlns="http://www.w3.org/2000/svg">
<path d="M22.3918 2.38544C21.6642 2.69856 20.8993 2.91659 20.116 3.03416C20.4822 2.97138 21.0211 2.3122 21.2356 2.04539C21.5614 1.64293 21.8098 1.18349 21.968 0.690413C21.968 0.653792 22.0046 0.601476 21.968 0.575318C21.9496 0.565244 21.9289 0.559965 21.9078 0.559965C21.8868 0.559965 21.8661 0.565244 21.8477 0.575318C20.9971 1.03592 20.0919 1.38746 19.1534 1.62163C19.1207 1.63163 19.0859 1.63252 19.0527 1.62423C19.0195 1.61593 18.9892 1.59876 18.9651 1.57455C18.892 1.48756 18.8134 1.40543 18.7297 1.32867C18.3469 0.985708 17.9126 0.705013 17.4427 0.496844C16.8084 0.236614 16.1232 0.123913 15.439 0.167255C14.7751 0.209185 14.1269 0.387262 13.5347 0.690413C12.9516 1.01002 12.4391 1.44422 12.028 1.96692C11.5956 2.50491 11.2834 3.12926 11.1125 3.79797C10.9715 4.43405 10.9555 5.09147 11.0654 5.73365C11.0654 5.84352 11.0654 5.85921 10.9712 5.84352C7.24112 5.2942 4.18064 3.97061 1.67995 1.12987C1.57009 1.00431 1.51254 1.00431 1.4236 1.12987C0.335435 2.78304 0.863824 5.39883 2.22403 6.69103C2.40714 6.86367 2.59548 7.03108 2.79428 7.18803C2.17063 7.14376 1.56221 6.97475 1.00508 6.69103C0.900445 6.62302 0.842898 6.65964 0.837666 6.7852C0.822836 6.95927 0.822836 7.13429 0.837666 7.30836C0.946826 8.14258 1.27559 8.93285 1.79034 9.59834C2.30508 10.2638 2.98734 10.7807 3.76735 11.096C3.9575 11.1775 4.15563 11.2388 4.35852 11.2791C3.78117 11.3928 3.18904 11.4105 2.60594 11.3314C2.48038 11.3053 2.4333 11.3733 2.48038 11.4936C3.24942 13.5863 4.9183 14.2245 6.14249 14.5803C6.3099 14.6064 6.47731 14.6064 6.66564 14.6483C6.66564 14.6483 6.66564 14.6483 6.63425 14.6797C6.27327 15.3388 4.81366 15.7835 4.14402 16.0137C2.92176 16.4527 1.61859 16.6205 0.324972 16.5055C0.12094 16.4741 0.0738562 16.4793 0.0215405 16.5055C-0.0307753 16.5316 0.0215404 16.5892 0.0790878 16.6415C0.340667 16.8141 0.602245 16.9659 0.874287 17.1123C1.68416 17.5541 2.54036 17.905 3.4273 18.1587C8.02062 19.4247 13.1894 18.4935 16.637 15.0668C19.347 12.3778 20.2991 8.66857 20.2991 4.95415C20.2991 4.8129 20.4718 4.72919 20.5712 4.65595C21.2568 4.12175 21.8612 3.49087 22.3656 2.78304C22.453 2.67753 22.4977 2.54319 22.4912 2.40637C22.4912 2.3279 22.4912 2.34359 22.3918 2.38544Z" fill="black"/>
</svg>
